<?xml version="1.0" encoding="UTF-8" standalone="no"?>
<svg
   xmlns:dc="http://purl.org/dc/elements/1.1/"
   xmlns:cc="http://creativecommons.org/ns#"
   xmlns:rdf="http://www.w3.org/1999/02/22-rdf-syntax-ns#"
   xmlns:svg="http://www.w3.org/2000/svg"
   xmlns="http://www.w3.org/2000/svg"
   xmlns:sodipodi="http://sodipodi.sourceforge.net/DTD/sodipodi-0.dtd"
   xmlns:inkscape="http://www.inkscape.org/namespaces/inkscape"
   sodipodi:docname="default.svg"
   inkscape:version="1.0.1 (3bc2e813f5, 2020-09-07)"
   id="svg8"
   version="1.1"
   viewBox="0 0 2438.4 1219.2"
   height="48in"
   width="96in">
  <defs
     id="defs2" />
  <sodipodi:namedview
     inkscape:window-maximized="1"
     inkscape:window-y="0"
     inkscape:window-x="0"
     inkscape:window-height="1440"
     inkscape:window-width="3440"
     units="in"
     showgrid="false"
     inkscape:document-rotation="0"
     inkscape:current-layer="layer1"
     inkscape:document-units="mm"
     inkscape:cy="2045.8675"
     inkscape:cx="4933.6743"
     inkscape:zoom="0.24748738"
     inkscape:pageshadow="2"
     inkscape:pageopacity="0.0"
     borderopacity="1.0"
     bordercolor="#666666"
     pagecolor="#ffffff"
     id="base" />
  <metadata
     id="metadata5">
    <rdf:RDF>
      <cc:Work
         rdf:about="">
        <dc:format>image/svg+xml</dc:format>
        <dc:type
           rdf:resource="http://purl.org/dc/dcmitype/StillImage" />
        <dc:title></dc:title>
      </cc:Work>
    </rdf:RDF>
  </metadata>
  <g
     id="layer1"
     inkscape:groupmode="layer"
     inkscape:label="Layer 1">
    <path
       d="m 588.35483,971.04317 v -8.235 l -0.584,-0.804 -0.307,-0.944 v -0.994 l 0.307,-0.944 0.584,-0.804 0.804,-0.584 0.945,-0.307 h 0.993 l 0.945,0.307 0.803,0.584 h 214.924 l 0.803,-0.584 0.945,-0.307 h 0.994 l 0.944,0.307 0.804,0.584 0.584,0.804 0.307,0.944 v 0.994 l -0.307,0.944 -0.584,0.804 v 8.235 h 220.72897 v -8.235 l -0.584,-0.804 -0.307,-0.944 v -0.994 l 0.307,-0.944 0.584,-0.804 0.803,-0.584 0.945,-0.307 h 0.993 l 0.945,0.307 0.804,0.584 h 214.9219 l 0.8,-0.584 0.95,-0.307 h 0.99 l 0.95,0.307 0.8,0.584 0.59,0.804 0.3,0.944 v 0.994 l -0.3,0.944 -0.59,0.804 v 8.235 h 220.73 v -8.235 l -0.58,-0.804 -0.31,-0.944 v -0.994 l 0.31,-0.944 0.58,-0.804 0.8,-0.584 0.95,-0.307 h 0.99 l 0.95,0.307 0.8,0.584 h 214.92 l 0.81,-0.584 0.94,-0.307 h 1 l 0.94,0.307 0.8,0.584 0.59,0.804 0.3,0.944 v 0.994 l -0.3,0.944 -0.59,0.804 v 8.235 h 220.73 v -8.235 l -0.58,-0.804 -0.31,-0.944 v -0.994 l 0.31,-0.944 0.58,-0.804 0.81,-0.584 0.94,-0.307 h 0.99 l 0.95,0.307 0.8,0.584 h 218.62 v 12.725 h 0.85 l 8.13,-279.36501 -0.01,-0.001 -113.88,6.633 -2.88,98.72501 0.56,0.82 0.28,0.953 -0.03,0.993 -0.33,0.935 -0.61,0.787 -0.82,0.56 -0.95,0.279 -0.99,-0.029 -0.94,-0.334 -0.78,-0.607 -3.72,-0.108 -0.82,0.56 -0.96,0.28 -0.99,-0.029 -0.93,-0.335 -0.79,-0.607 -0.56,-0.82 -0.28,-0.953 0.03,-0.993 0.33,-0.936 0.61,-0.786 2.84,-97.61401 -593.56,34.571 -2.87,98.72501 0.56,0.82 0.28,0.953 -0.03,0.993 -0.33,0.935 -0.61,0.787 -0.82,0.56 -0.95,0.279 -1,-0.029 -0.93,-0.334 -0.79,-0.607 -3.72,-0.108 -0.82,0.56 -0.95,0.28 -0.99,-0.029 -0.94,-0.335 -0.78,-0.607 -0.57,-0.82 -0.27,-0.953 0.02,-0.993 0.34,-0.936 0.61,-0.786 2.84,-97.61301 -493.34787,28.734 -2.873,98.72401 0.56,0.82 0.28,0.953 -0.029,0.993 -0.335,0.936 -0.607,0.786 -0.82,0.56 -0.953,0.28 -0.993,-0.029 -0.936,-0.335 -0.786,-0.607 -3.718,-0.108 -0.82,0.561 -0.954,0.279 -0.992,-0.029 -0.936,-0.334 -0.786,-0.607 -0.56,-0.821 -0.28,-0.953 0.029,-0.993 0.334,-0.935 0.607,-0.787 2.841,-97.61301 -393.133,22.89801 -2.872,98.723 0.56,0.821 0.279,0.953 -0.029,0.993 -0.334,0.935 -0.607,0.787 -0.82,0.56 -0.953,0.279 -0.993,-0.029 -0.936,-0.334 -0.786,-0.607 -3.718,-0.108 -0.82,0.56 -0.954,0.28 -0.993,-0.029 -0.935,-0.335 -0.786,-0.607 -0.561,-0.82 -0.279,-0.953 0.029,-0.993 0.334,-0.936 0.607,-0.786 2.84,-97.613 -292.91975,17.061 -2.8726,98.723 0.5603,0.821 0.2793,0.953 -0.0289,0.993 -0.3343,0.935 -0.607,0.787 -0.8203,0.56 -0.9532,0.279 -0.993,-0.029 -0.9354,-0.334 -0.7863,-0.607 -3.7182,-0.108 -0.8202,0.56 -0.9533,0.279 -0.993,-0.028 -0.9354,-0.335 -0.7863,-0.607 -0.5603,-0.82 -0.2793,-0.953 0.0289,-0.993 0.3343,-0.936 0.607,-0.786 2.8402,-97.613 -53.76378,3.131 -4.36184,149.907 h 217.40333 l 0.804,-0.584 0.945,-0.307 h 0.993 l 0.945,0.307 0.803,0.584 0.584,0.804 0.307,0.944 v 0.994 l -0.307,0.944 -0.584,0.804 v 8.235 z"
       id="path1007"
       style="fill:#d322d3;fill-opacity:1" />
    <path
       d="m 259.25379,763.61016 2.872,-98.724 -0.56,-0.821 -0.279,-0.953 0.028,-0.993 0.335,-0.935 0.607,-0.787 0.82,-0.56 0.953,-0.279 0.993,0.029 0.936,0.334 0.786,0.607 3.718,0.108 0.82,-0.56 0.954,-0.28 0.993,0.029 0.935,0.335 0.786,0.607 0.561,0.82 0.279,0.953 -0.029,0.993 -0.334,0.936 -0.607,0.786 -2.841,97.614 593.55704,-34.571 2.873,-98.724 -0.561,-0.821 -0.279,-0.953 0.029,-0.993 0.334,-0.935 0.607,-0.787 0.821,-0.56 0.953,-0.279 0.993,0.029 0.935,0.334 0.786,0.607 3.719,0.108 0.82,-0.56 0.953,-0.28 0.993,0.029 0.936,0.335 0.786,0.607 0.56,0.82 0.279,0.953 -0.028,0.993 -0.335,0.936 -0.607,0.786 -2.84,97.613 493.34587,-28.734 2.87,-98.724 -0.56,-0.82 -0.28,-0.953 0.03,-0.993 0.33,-0.936 0.61,-0.786 0.82,-0.56 0.96,-0.28 0.99,0.029 0.93,0.335 0.79,0.607 3.72,0.108 0.82,-0.561 0.95,-0.279 0.99,0.029 0.94,0.334 0.79,0.607 0.56,0.821 0.28,0.953 -0.03,0.993 -0.34,0.935 -0.6,0.787 -2.84,97.613 393.13,-22.898 2.87,-98.723 -0.56,-0.821 -0.28,-0.953 0.03,-0.993 0.33,-0.935 0.61,-0.787 0.82,-0.56 0.95,-0.279 1,0.029 0.93,0.334 0.79,0.607 3.72,0.108 0.82,-0.56 0.95,-0.279 0.99,0.028 0.94,0.335 0.79,0.607 0.56,0.82 0.28,0.953 -0.03,0.993 -0.34,0.936 -0.61,0.786 -2.84,97.613 292.92,-17.061 2.88,-98.723 -0.56,-0.821 -0.28,-0.953 0.03,-0.993 0.33,-0.935 0.61,-0.787 0.82,-0.56 0.95,-0.279 0.99,0.029 0.94,0.334 0.79,0.607 3.71,0.108 0.82,-0.56 0.96,-0.279 0.99,0.029 0.94,0.334 0.78,0.607 0.56,0.82 0.28,0.953 -0.03,0.993 -0.33,0.936 -0.61,0.786 -2.84,97.613 53.77,-3.131 4.36,-149.907 h -217.41 l -0.8,0.584 -0.94,0.307 h -1 l -0.94,-0.307 -0.81,-0.584 -0.58,-0.804 -0.31,-0.944 v -0.994 l 0.31,-0.944 0.58,-0.804 v -8.235 h -220.73 v 8.235 l 0.59,0.804 0.31,0.944 v 0.994 l -0.31,0.944 -0.59,0.804 -0.8,0.584 -0.94,0.307 h -1 l -0.94,-0.307 -0.81,-0.584 h -214.92 l -0.8,0.584 -0.95,0.307 h -0.99 l -0.95,-0.307 -0.8,-0.584 -0.58,-0.804 -0.31,-0.944 v -0.994 l 0.31,-0.944 0.58,-0.804 v -8.235 h -220.73 v 8.235 l 0.59,0.804 0.3,0.944 v 0.994 l -0.3,0.944 -0.59,0.804 -0.8,0.584 -0.95,0.307 h -0.99 l -0.94,-0.307 -0.81,-0.584 h -214.9209 l -0.804,0.584 -0.945,0.307 h -0.993 l -0.945,-0.307 -0.803,-0.584 -0.584,-0.804 -0.307,-0.944 v -0.994 l 0.307,-0.944 0.584,-0.804 v -8.235 H 822.07983 v 8.235 l 0.584,0.804 0.307,0.944 v 0.994 l -0.307,0.944 -0.584,0.804 -0.804,0.584 -0.945,0.307 h -0.993 l -0.945,-0.307 -0.803,-0.584 h -214.924 l -0.804,0.584 -0.944,0.307 h -0.994 l -0.944,-0.307 -0.804,-0.584 -0.584,-0.804 -0.307,-0.944 v -0.994 l 0.307,-0.944 0.584,-0.804 v -8.235 H 377.44679 v 8.235 l 0.584,0.804 0.307,0.944 v 0.994 l -0.307,0.944 -0.584,0.804 -0.803,0.584 -0.945,0.307 h -0.993 l -0.945,-0.307 -0.804,-0.584 h -218.6198 v -12.725 h -0.84608 l -8.12869,279.366 h 0.01 z"
       id="path989"
       style="fill:#d322d3;fill-opacity:1" />
    <path
       d="m 370.94879,459.50016 -0.584,-0.804 -0.307,-0.944 v -0.994 l 0.307,-0.944 0.584,-0.804 0.804,-0.584 0.945,-0.307 h 0.993 l 0.945,0.307 0.803,0.584 h 214.92404 l 0.804,-0.584 0.944,-0.307 h 0.994 l 0.944,0.307 0.804,0.584 0.584,0.804 0.307,0.944 v 0.994 l -0.307,0.944 -0.584,0.804 v 8.21 h 220.729 v -8.21 l -0.584,-0.804 -0.307,-0.944 v -0.994 l 0.307,-0.944 0.584,-0.804 0.803,-0.584 0.945,-0.307 h 0.994 l 0.944,0.307 0.804,0.584 h 214.92297 l 0.804,-0.584 0.945,-0.307 h 0.993 l 0.945,0.307 0.804,0.584 0.583,0.804 0.307,0.944 v 0.994 l -0.307,0.944 -0.583,0.804 v 8.21 h 220.7239 v -8.21 l -0.58,-0.804 -0.31,-0.944 v -0.994 l 0.31,-0.944 0.58,-0.804 0.81,-0.584 0.94,-0.307 h 1 l 0.94,0.307 0.8,0.584 h 214.93 l 0.8,-0.584 0.95,-0.307 h 0.99 l 0.94,0.307 0.81,0.584 0.58,0.804 0.31,0.944 v 0.994 l -0.31,0.944 -0.58,0.804 v 8.21 h 220.73 v -8.21 l -0.59,-0.804 -0.3,-0.944 v -0.994 l 0.3,-0.944 0.59,-0.804 0.8,-0.584 0.95,-0.307 h 0.99 l 0.94,0.307 0.81,0.584 h 214.92 l 0.8,-0.584 0.95,-0.307 h 0.99 l 0.95,0.307 0.8,0.584 0.58,0.804 0.31,0.944 v 0.994 l -0.31,0.944 -0.58,0.804 v 8.21 h 221.52 V 55.010164 h -221.52 v 8.21 l 0.58,0.8 0.31,0.95 v 0.99 l -0.31,0.95 -0.58,0.8 -0.8,0.58 -0.95,0.31 h -0.99 l -0.95,-0.31 -0.8,-0.58 h -214.92 l -0.81,0.58 -0.94,0.31 h -0.99 l -0.95,-0.31 -0.8,-0.58 -0.59,-0.8 -0.3,-0.95 v -0.99 l 0.3,-0.95 0.59,-0.8 v -8.21 h -220.73 v 8.21 l 0.58,0.8 0.31,0.95 v 0.99 l -0.31,0.95 -0.58,0.8 -0.81,0.58 -0.94,0.31 h -0.99 l -0.95,-0.31 -0.8,-0.58 h -214.93 l -0.8,0.58 -0.94,0.31 h -1 l -0.94,-0.31 -0.81,-0.58 -0.58,-0.8 -0.31,-0.95 v -0.99 l 0.31,-0.95 0.58,-0.8 v -8.21 h -220.7239 v 8.21 l 0.583,0.8 0.307,0.95 v 0.99 l -0.307,0.95 -0.583,0.8 -0.804,0.58 -0.945,0.31 h -0.993 l -0.945,-0.31 -0.804,-0.58 H 820.07183 l -0.804,0.58 -0.944,0.31 h -0.994 l -0.945,-0.31 -0.803,-0.58 -0.584,-0.8 -0.307,-0.95 v -0.99 l 0.307,-0.95 0.584,-0.8 v -8.21 h -220.729 v 8.21 l 0.584,0.8 0.307,0.95 v 0.99 l -0.307,0.95 -0.584,0.8 -0.804,0.58 -0.944,0.31 h -0.994 l -0.944,-0.31 -0.804,-0.58 H 375.43879 l -0.803,0.58 -0.945,0.31 h -0.993 l -0.945,-0.31 -0.804,-0.58 -0.584,-0.8 -0.307,-0.95 v -0.99 l 0.307,-0.95 0.584,-0.8 v -8.21 H 149.42656 V 467.71016 h 221.52223 z"
       id="path948"
       style="fill:#d322d3;fill-opacity:1" />
    <path
       d="m 1178.5897,1179.8262 2.86,-1.276 2.54,-1.843 2.1,-2.33 1.56,-2.716 0.97,-2.982 0.33,-3.119 v -150 l -0.73,-4.635 -1.28,-2.865 -1.84,-2.537 -2.33,-2.098 -2.72,-1.568 -2.98,-0.969 -3.12,-0.328 H 995.30083 v 55.51 l 0.584,0.804 0.307,0.944 v 0.994 l -0.307,0.944 -0.584,0.804 -0.804,0.584 -0.945,0.307 h -0.993 l -0.945,-0.307 -0.803,-0.584 h -3.72 l -0.804,0.584 -0.944,0.307 h -0.994 l -0.945,-0.307 -0.803,-0.584 -0.584,-0.804 -0.307,-0.944 v -0.994 l 0.307,-0.944 0.584,-0.804 v -55.51 h -387.3 v 55.51 l 0.584,0.804 0.307,0.944 v 0.994 l -0.307,0.944 -0.584,0.804 -0.804,0.584 -0.945,0.307 h -0.993 l -0.945,-0.307 -0.803,-0.584 h -3.72 l -0.804,0.584 -0.944,0.307 h -0.994 l -0.945,-0.307 -0.803,-0.584 -0.584,-0.804 -0.307,-0.944 v -0.994 l 0.307,-0.944 0.584,-0.804 v -55.51 H 403.95079 l -4.635,0.734 -2.865,1.276 -2.537,1.843 -2.098,2.33 -1.568,2.716 -0.969,2.982 -0.328,3.119 v 150 l 0.734,4.635 1.275,2.865 1.844,2.537 2.33,2.098 2.716,1.568 2.982,0.969 3.119,0.328 h 769.99891 z"
       id="path1027" />
    <path
       d="m 1996.1197,1180.2322 2.98,-0.969 2.72,-1.568 2.33,-2.098 1.84,-2.537 1.28,-2.865 0.73,-4.635 v -150 l -0.33,-3.119 -0.97,-2.982 -1.56,-2.716 -2.1,-2.33 -2.54,-1.843 -2.86,-1.276 -4.64,-0.734 h -178.65 v 55.51 l 0.58,0.804 0.31,0.944 v 0.994 l -0.31,0.944 -0.58,0.804 -0.8,0.584 -0.95,0.307 h -0.99 l -0.95,-0.307 -0.8,-0.584 h -3.72 l -0.8,0.584 -0.95,0.307 h -0.99 l -0.95,-0.307 -0.8,-0.584 -0.58,-0.804 -0.31,-0.944 v -0.994 l 0.31,-0.944 0.58,-0.804 v -55.51 h -387.3 v 55.51 l 0.58,0.804 0.31,0.944 v 0.994 l -0.31,0.944 -0.58,0.804 -0.8,0.584 -0.95,0.307 h -0.99 l -0.95,-0.307 -0.8,-0.584 h -3.72 l -0.8,0.584 -0.95,0.307 h -0.99 l -0.95,-0.307 -0.8,-0.584 -0.58,-0.804 -0.31,-0.944 v -0.994 l 0.31,-0.944 0.58,-0.804 v -55.51 h -178.65 l -3.12,0.328 -2.98,0.969 -2.72,1.568 -2.33,2.098 -1.84,2.537 -1.28,2.865 -0.73,4.635 v 150 l 0.33,3.119 0.97,2.982 1.57,2.716 2.09,2.33 2.54,1.843 2.87,1.276 4.63,0.734 h 770 z"
       id="path1025" />
    <path
       id="path999"
       style="fill:#44ffff;fill-opacity:1"
       d="m 1859.1797,610.04616 -3.05,-0.74 -2.82,-1.359 -2.49,-1.916 -2.03,-2.39 -1.48,-2.761 -0.89,-3.009 -0.23,-3.127 0.85,-29.303 0.73,-4.199 1.27,-2.865 1.85,-2.537 2.33,-2.098 2.71,-1.568 2.98,-0.969 3.12,-0.328 h 155.07 l 2,0.134 3.05,0.741 2.82,1.358 2.49,1.917 2.02,2.39 1.49,2.76 0.88,3.01 0.24,3.126 -0.59,20.257 -0.48,3.362 -1.11,2.934 -1.69,2.639 -2.2,2.231 -2.62,1.723 -2.92,1.141 -3.1,0.508 -155.33,9.047 z m -405.86,23.639 -3.05,-0.741 -2.82,-1.358 -2.49,-1.916 -2.03,-2.391 -1.48,-2.76 -0.89,-3.009 -0.23,-3.127 1.54,-52.942 0.73,-4.199 1.27,-2.865 1.84,-2.537 2.33,-2.098 2.72,-1.568 2.98,-0.969 3.12,-0.328 h 255.11 l 2,0.134 3.05,0.741 2.82,1.359 2.49,1.916 2.03,2.39 1.48,2.76 0.89,3.01 0.23,3.127 -1.1,38.058 -0.49,3.362 -1.1,2.934 -1.7,2.639 -2.2,2.231 -2.62,1.723 -2.92,1.141 -3.1,0.508 -255.54,14.884 z m -506.07187,29.476 -3.047,-0.741 -2.826,-1.358 -2.483,-1.917 -2.029,-2.39 -1.489,-2.76 -0.881,-3.009 -0.237,-3.127 2.398,-82.418 0.728,-4.199 1.275,-2.865 1.843,-2.537 2.331,-2.098 2.715,-1.568 2.983,-0.969 3.118,-0.328 h 355.15287 l 2,0.134 3.05,0.741 2.82,1.359 2.48,1.916 2.03,2.39 1.49,2.76 0.88,3.01 0.24,3.127 -1.79,61.697 -0.49,3.361 -1.1,2.934 -1.7,2.64 -2.2,2.231 -2.62,1.723 -2.92,1.141 -3.1,0.508 -355.74787,20.721 z m -606.28304,35.312 -3.047,-0.741 -2.827,-1.358 -2.482,-1.916 -2.03,-2.391 -1.488,-2.76 -0.882,-3.009 -0.237,-3.127 3.426,-117.73 0.728,-4.199 1.275,-2.865 1.843,-2.536 2.331,-2.099 2.715,-1.568 2.983,-0.969 3.118,-0.328 h 455.19304 l 2.001,0.134 3.047,0.741 2.827,1.359 2.482,1.916 2.029,2.39 1.489,2.76 0.882,3.01 0.237,3.127 -2.653,91.172 -0.483,3.362 -1.106,2.934 -1.693,2.64 -2.204,2.23 -2.62,1.723 -2.921,1.141 -3.095,0.509 -455.96504,26.557 z m 1155.14491,212.43601 -3.04,-0.741 -2.83,-1.359 -2.48,-1.916 -2.03,-2.39 -1.49,-2.76 -0.88,-3.01 -0.24,-3.127 2.66,-91.172 0.48,-3.362 1.1,-2.934 1.7,-2.64 2.2,-2.23 2.62,-1.723 2.92,-1.141 3.1,-0.509 455.96,-26.55701 2.88,0.109 3.04,0.741 2.83,1.358 2.48,1.916 2.03,2.391 1.49,2.76 0.88,3.009 0.24,3.127 -3.43,117.73001 -0.73,4.199 -1.27,2.865 -1.84,2.537 -2.33,2.098 -2.72,1.568 -2.98,0.969 -3.12,0.328 h -455.19 z m -505.20887,0 -3.047,-0.741 -2.826,-1.359 -2.483,-1.916 -2.029,-2.39 -1.489,-2.76 -0.881,-3.01 -0.237,-3.127 1.795,-61.697 0.482,-3.361 1.107,-2.934 1.693,-2.64 2.204,-2.23 2.62,-1.724 2.921,-1.14 3.094,-0.509 355.75487,-20.72 2.87,0.108 3.05,0.741 2.83,1.358 2.48,1.917 2.03,2.39 1.49,2.76 0.88,3.01 0.23,3.126 -2.39,82.418 -0.73,4.199 -1.28,2.865 -1.84,2.537 -2.33,2.098 -2.72,1.568 -2.98,0.969 -3.12,0.328 H 992.90183 Z m -405.171,0 -3.047,-0.741 -2.827,-1.358 -2.482,-1.917 -2.03,-2.39 -1.488,-2.76 -0.882,-3.01 -0.237,-3.127 1.108,-38.058 0.482,-3.362 1.107,-2.934 1.692,-2.639 2.205,-2.231 2.62,-1.723 2.921,-1.141 3.094,-0.508 255.541,-14.884 2.873,0.109 3.048,0.741 2.826,1.358 2.482,1.916 2.03,2.391 1.488,2.76 0.882,3.009 0.237,3.127 -1.541,52.942 -0.727,4.199 -1.276,2.865 -1.843,2.537 -2.33,2.098 -2.716,1.568 -2.982,0.969 -3.119,0.328 h -255.108 z m -303.12804,0.134 -2.001,-0.134 -3.047,-0.741 -2.827,-1.358 -2.482,-1.917 -2.03,-2.39 -1.488,-2.76 -0.882,-3.01 -0.237,-3.126 0.59,-20.257 0.482,-3.362 1.107,-2.934 1.692,-2.639 2.205,-2.231 2.62,-1.723 2.921,-1.141 3.094,-0.508 155.329,-9.047 2.873,0.109 3.047,0.74 2.827,1.359 2.482,1.916 2.03,2.39 1.488,2.761 0.882,3.009 0.237,3.127 -0.853,29.303 -0.728,4.199 -1.275,2.865 -1.843,2.537 -2.331,2.098 -2.716,1.568 -2.982,0.969 -3.119,0.328 z" />
    <path
       d="m 2337.8697,1070.6322 2.98,-0.969 2.71,-1.568 2.33,-2.098 1.85,-2.537 1.27,-2.865 0.74,-4.635 V 285.96016 l -0.33,-3.119 -0.97,-2.981 -1.57,-2.72 -2.1,-2.33 -2.53,-1.84 -2.87,-1.28 -4.63,-0.73 h -150 l -3.12,0.33 -2.98,0.97 -2.72,1.56 -2.33,2.1 -1.84,2.54 -1.28,2.865 -0.73,4.635 v 178.65 h 55.51 l 0.8,-0.584 0.94,-0.307 h 1 l 0.94,0.307 0.81,0.584 0.58,0.804 0.31,0.944 v 0.994 l -0.31,0.945 -0.58,0.803 v 3.72 l 0.58,0.804 0.31,0.944 v 0.994 l -0.31,0.944 -0.58,0.804 -0.81,0.584 -0.94,0.307 h -1 l -0.94,-0.307 -0.8,-0.584 h -55.51 v 387.30001 h 55.51 l 0.8,-0.584 0.94,-0.307 h 1 l 0.94,0.307 0.81,0.584 0.58,0.804 0.31,0.944 v 0.994 l -0.31,0.944 -0.58,0.804 v 3.72 l 0.58,0.804 0.31,0.944 v 0.994 l -0.31,0.944 -0.58,0.804 -0.81,0.584 -0.94,0.307 h -1 l -0.94,-0.307 -0.8,-0.584 h -55.51 v 178.65003 l 0.32,3.119 0.97,2.982 1.57,2.716 2.1,2.33 2.54,1.843 2.86,1.276 4.64,0.734 h 150 z"
       id="path987" />
    <path
       d="m 284.45179,407.71016 -4.635,-0.734 -2.865,-1.276 -2.537,-1.843 -2.098,-2.33 -1.568,-2.716 -0.969,-2.982 -0.328,-3.119 v -262.7 l 0.734,-4.64 1.276,-2.86 1.843,-2.54 2.33,-2.1 2.716,-1.56 2.982,-0.97 3.119,-0.33 H 1955.2197 l 4.64,0.73 2.86,1.28 2.54,1.84 2.1,2.33 1.57,2.72 0.96,2.98 0.33,3.12 v 262.7 l -0.73,4.635 -1.28,2.865 -1.84,2.537 -2.33,2.098 -2.72,1.568 -2.98,0.969 -3.12,0.328 z"
       id="path971"
       style="fill:#0022d3;fill-opacity:1" />
    <path
       id="path973"
       style="fill:#00b903;fill-opacity:1"
       d="m 1078.5858,350.62616 2.865,-1.276 2.537,-1.843 2.098,-2.33 1.568,-2.716 0.969,-2.982 0.328,-3.119 v -150 l -0.734,-4.64 -1.276,-2.86 -1.843,-2.54 -2.33,-2.1 -2.716,-1.56 -2.983,-0.97 -3.118,-0.33 H 895.30083 v 55.51 l 0.584,0.8 0.307,0.95 v 0.99 l -0.307,0.95 -0.584,0.8 -0.804,0.58 -0.945,0.31 h -0.993 l -0.945,-0.31 -0.803,-0.58 h -3.72 l -0.804,0.58 -0.944,0.31 h -0.994 l -0.945,-0.31 -0.803,-0.58 -0.584,-0.8 -0.307,-0.95 v -0.99 l 0.307,-0.95 0.584,-0.8 v -55.51 h -387.3 v 55.51 l 0.584,0.8 0.307,0.95 v 0.99 l -0.307,0.95 -0.584,0.8 -0.804,0.58 -0.945,0.31 h -0.993 l -0.94504,-0.31 -0.803,-0.58 h -3.72 l -0.804,0.58 -0.944,0.31 h -0.994 l -0.945,-0.31 -0.803,-0.58 -0.584,-0.8 -0.307,-0.95 v -0.99 l 0.307,-0.95 0.584,-0.8 v -55.51 h -178.65 l -4.635,0.73 -2.865,1.28 -2.537,1.84 -2.098,2.33 -1.568,2.72 -0.969,2.98 -0.328,3.12 v 150 l 0.734,4.635 1.275,2.865 1.844,2.537 2.33,2.098 2.716,1.568 2.982,0.969 3.119,0.328 h 770.00001 z m 817.5339,0.406 2.98,-0.969 2.72,-1.568 2.33,-2.098 1.84,-2.537 1.28,-2.865 0.73,-4.635 v -150 l -0.33,-3.12 -0.97,-2.98 -1.56,-2.72 -2.1,-2.33 -2.54,-1.84 -2.86,-1.28 -4.64,-0.73 h -178.65 v 55.51 l 0.58,0.8 0.31,0.95 v 0.99 l -0.31,0.95 -0.58,0.8 -0.8,0.58 -0.95,0.31 h -0.99 l -0.95,-0.31 -0.8,-0.58 h -3.72 l -0.8,0.58 -0.95,0.31 h -0.99 l -0.95,-0.31 -0.8,-0.58 -0.58,-0.8 -0.31,-0.95 v -0.99 l 0.31,-0.95 0.58,-0.8 v -55.51 h -387.3 v 55.51 l 0.58,0.8 0.31,0.95 v 0.99 l -0.31,0.95 -0.58,0.8 -0.8,0.58 -0.95,0.31 h -0.99 l -0.95,-0.31 -0.8,-0.58 h -3.72 l -0.8,0.58 -0.95,0.31 h -0.99 l -0.95,-0.31 -0.8,-0.58 -0.58,-0.8 -0.31,-0.95 v -0.99 l 0.31,-0.95 0.58,-0.8 v -55.51 h -178.6489 l -3.119,0.33 -2.982,0.97 -2.716,1.56 -2.33,2.1 -1.844,2.54 -1.275,2.86 -0.734,4.64 v 150 l 0.328,3.119 0.969,2.982 1.568,2.716 2.098,2.33 2.537,1.843 2.865,1.276 4.635,0.734 h 769.9989 z" />
    <path
       id="path961"
       style="fill:#ff0000;fill-opacity:1"
       d="m 2038.1297,64.330164 -0.88,-0.45 -0.7,-0.7 -0.45,-0.89 -0.16,-0.98 0.16,-0.98 0.45,-0.89 0.7,-0.7 0.88,-0.45 0.99,-0.16 0.98,0.16 0.88,0.45 0.7,0.7 0.45,0.89 0.16,0.98 -0.16,0.98 -0.45,0.89 -0.7,0.7 -0.88,0.45 -0.98,0.16 z m -444.63,0 -0.88,-0.45 -0.71,-0.7 -0.45,-0.89 -0.15,-0.98 0.15,-0.98 0.45,-0.89 0.71,-0.7 0.88,-0.45 0.98,-0.16 0.98,0.16 0.89,0.45 0.7,0.7 0.45,0.89 0.16,0.98 -0.16,0.98 -0.45,0.89 -0.7,0.7 -0.89,0.45 -0.98,0.16 z m -444.631,0 -0.8849,-0.45 -0.703,-0.7 -0.451,-0.89 -0.155,-0.98 0.155,-0.98 0.451,-0.89 0.703,-0.7 0.8849,-0.45 0.981,-0.16 0.98,0.16 0.89,0.45 0.7,0.7 0.45,0.89 0.16,0.98 -0.16,0.98 -0.45,0.89 -0.7,0.7 -0.89,0.45 -0.98,0.16 z m -444.63287,0 -0.885,-0.45 -0.702,-0.7 -0.451,-0.89 -0.156,-0.98 0.156,-0.98 0.451,-0.89 0.702,-0.7 0.885,-0.45 0.981,-0.16 0.982,0.16 0.885,0.45 0.702,0.7 0.451,0.89 0.155,0.98 -0.155,0.98 -0.451,0.89 -0.702,0.7 -0.885,0.45 -0.982,0.16 z m -444.63204,0 -0.885,-0.45 -0.703,-0.7 -0.451,-0.89 -0.155,-0.98 0.155,-0.98 0.451,-0.89 0.703,-0.7 0.885,-0.45 0.981,-0.16 0.981,0.16 0.885,0.45 0.703,0.7 0.451,0.89 0.155,0.98 -0.155,0.98 -0.451,0.89 -0.703,0.7 -0.885,0.45 -0.981,0.16 z m 1778.52591,400.099996 -0.88,-0.451 -0.7,-0.703 -0.45,-0.885 -0.16,-0.981 0.16,-0.981 0.45,-0.885 0.7,-0.703 0.88,-0.451 0.99,-0.155 0.98,0.155 0.88,0.451 0.7,0.703 0.45,0.885 0.16,0.981 -0.16,0.981 -0.45,0.885 -0.7,0.703 -0.88,0.451 -0.98,0.155 z m -1778.52591,0 -0.885,-0.451 -0.703,-0.703 -0.451,-0.885 -0.155,-0.981 0.155,-0.981 0.451,-0.885 0.703,-0.703 0.885,-0.451 0.981,-0.155 0.981,0.155 0.885,0.451 0.703,0.703 0.451,0.885 0.155,0.981 -0.155,0.981 -0.451,0.885 -0.703,0.703 -0.885,0.451 -0.981,0.155 z m 444.63204,0 -0.885,-0.451 -0.702,-0.703 -0.451,-0.885 -0.156,-0.981 0.156,-0.981 0.451,-0.885 0.702,-0.703 0.885,-0.451 0.981,-0.155 0.982,0.155 0.885,0.451 0.702,0.703 0.451,0.885 0.155,0.981 -0.155,0.981 -0.451,0.885 -0.702,0.703 -0.885,0.451 -0.982,0.155 z m 444.63287,0 -0.8849,-0.451 -0.703,-0.703 -0.451,-0.885 -0.155,-0.981 0.155,-0.981 0.451,-0.885 0.703,-0.703 0.8849,-0.451 0.981,-0.155 0.98,0.155 0.89,0.451 0.7,0.703 0.45,0.885 0.16,0.981 -0.16,0.981 -0.45,0.885 -0.7,0.703 -0.89,0.451 -0.98,0.155 z m 444.631,0 -0.88,-0.451 -0.71,-0.703 -0.45,-0.885 -0.15,-0.981 0.15,-0.981 0.45,-0.885 0.71,-0.703 0.88,-0.451 0.98,-0.155 0.98,0.155 0.89,0.451 0.7,0.703 0.45,0.885 0.16,0.981 -0.16,0.981 -0.45,0.885 -0.7,0.703 -0.89,0.451 -0.98,0.155 z m 227.23,35.792 -0.89,-0.451 -0.7,-0.703 -0.45,-0.885 -0.16,-0.981 0.16,-0.981 0.45,-0.885 0.7,-0.703 0.89,-0.451 0.98,-0.155 0.98,0.155 0.89,0.451 0.7,0.703 0.45,0.885 0.15,0.981 -0.15,0.981 -0.45,0.885 -0.7,0.703 -0.89,0.451 -0.98,0.155 z m -889.26687,0 -0.885,-0.451 -0.702,-0.703 -0.451,-0.885 -0.156,-0.981 0.156,-0.981 0.451,-0.885 0.702,-0.703 0.885,-0.451 0.981,-0.155 0.981,0.155 0.885,0.451 0.703,0.703 0.451,0.885 0.155,0.981 -0.155,0.981 -0.451,0.885 -0.703,0.703 -0.885,0.451 -0.981,0.155 z m -444.63304,0 -0.885,-0.451 -0.702,-0.703 -0.451,-0.885 -0.155,-0.981 0.155,-0.981 0.451,-0.885 0.702,-0.703 0.885,-0.451 0.982,-0.155 0.981,0.155 0.885,0.451 0.702,0.703 0.451,0.885 0.156,0.981 -0.156,0.981 -0.451,0.885 -0.702,0.703 -0.885,0.451 -0.981,0.155 z m 889.26991,0 -0.89,-0.451 -0.7,-0.703 -0.45,-0.885 -0.16,-0.981 0.16,-0.981 0.45,-0.885 0.7,-0.703 0.89,-0.451 0.98,-0.155 0.98,0.155 0.88,0.451 0.71,0.703 0.45,0.885 0.15,0.981 -0.15,0.981 -0.45,0.885 -0.71,0.703 -0.88,0.451 -0.98,0.155 z m -9.83,467.51601 -0.88,-0.451 -0.7,-0.703 -0.45,-0.885 -0.16,-0.981 0.16,-0.981 0.45,-0.885 0.7,-0.703 0.88,-0.451 0.99,-0.155 0.98,0.155 0.88,0.451 0.7,0.703 0.46,0.885 0.15,0.981 -0.15,0.981 -0.46,0.885 -0.7,0.703 -0.88,0.451 -0.98,0.155 z m -889.25991,0 -0.885,-0.451 -0.703,-0.703 -0.451,-0.885 -0.155,-0.981 0.155,-0.981 0.451,-0.885 0.703,-0.703 0.885,-0.451 0.981,-0.155 0.981,0.155 0.885,0.451 0.702,0.703 0.451,0.885 0.156,0.981 -0.156,0.981 -0.451,0.885 -0.702,0.703 -0.885,0.451 -0.981,0.155 z m 444.63204,0 -0.885,-0.451 -0.702,-0.703 -0.451,-0.885 -0.156,-0.981 0.156,-0.981 0.451,-0.885 0.702,-0.703 0.885,-0.451 0.981,-0.155 0.981,0.155 0.886,0.451 0.702,0.703 0.451,0.885 0.155,0.981 -0.155,0.981 -0.451,0.885 -0.702,0.703 -0.886,0.451 -0.981,0.155 z m 889.26787,0 -0.89,-0.451 -0.7,-0.703 -0.45,-0.885 -0.16,-0.981 0.16,-0.981 0.45,-0.885 0.7,-0.703 0.89,-0.451 0.98,-0.155 0.98,0.155 0.88,0.451 0.71,0.703 0.45,0.885 0.15,0.981 -0.15,0.981 -0.45,0.885 -0.71,0.703 -0.88,0.451 -0.98,0.155 z" />
  </g>
</svg>
